<?xml version="1.0" encoding="UTF-8"?>
<svg version="1.1" xmlns="http://www.w3.org/2000/svg" width="1500" height="1500">
<path d="M0 0 C1.83071198 -0.0088686 3.66140006 -0.02521425 5.49198806 -0.04829198 C10.47709848 -0.08983868 15.45598664 -0.0265137 20.44038963 0.05535138 C25.83423562 0.12510572 31.22769689 0.09570361 36.62184143 0.07885742 C47.17673341 0.06112045 57.72919073 0.13295579 68.28353603 0.2342476 C80.61129904 0.34849192 92.93867036 0.36730333 105.26688789 0.38114866 C127.3009267 0.40857419 149.33389805 0.51324169 171.36740112 0.66545105 C192.66525831 0.81243655 213.96261038 0.91896824 235.26095581 0.97306824 C236.56962581 0.97640373 237.87829581 0.97973922 239.22662248 0.98317579 C244.48972015 0.99644915 249.75281831 1.00949972 255.01591731 1.02223961 C295.53959693 1.12127794 336.06362988 1.25748866 376.58660316 1.5205822 C380.80480083 1.54775604 385.02298804 1.57110682 389.2412281 1.5905838 C472.93077878 1.98775575 569.06555979 3.38898397 639.2482605 55.05778503 C640.14689819 55.7188324 640.14689819 55.7188324 641.06369019 56.39323425 C696.02603453 97.27394101 729.66305984 162.52425932 739.6232605 229.49528503 C741.71419527 243.86681083 742.48724046 258.11660785 742.4982605 272.62028503 C742.49927261 273.82991409 742.49927261 273.82991409 742.50030518 275.0639801 C742.41177685 342.27021379 719.02643128 405.44042375 672.2482605 454.05778503 C671.69766968 454.6356073 671.14707886 455.21342957 670.57980347 455.8087616 C662.87945721 463.858624 654.90785192 471.15748468 645.95431519 477.79167175 C644.32433234 479.00132989 642.7115916 480.23411842 641.099823 481.46794128 C607.74318904 506.57365505 568.30283117 521.20427265 528.42843628 532.17912292 C525.0289194 533.11838757 521.63826738 534.08482153 518.2482605 535.05778503 C518.78080444 535.4190448 519.31334839 535.78030457 519.86203003 536.1525116 C522.37172821 537.86236837 524.87239064 539.58504401 527.3732605 541.30778503 C528.20986206 541.87497253 529.04646362 542.44216003 529.90841675 543.02653503 C543.23394987 552.24419705 554.78922941 563.28645132 566.16452026 574.76823425 C568.20288543 576.8250651 570.24934997 578.8735712 572.29708862 580.92106628 C573.62373586 582.2526241 574.94992448 583.58463902 576.27560425 584.91716003 C576.87364365 585.51631226 577.47168304 586.11546448 578.08784485 586.73277283 C582.32786132 591.01983994 586.31615258 595.48809888 590.2482605 600.05778503 C591.22167499 601.17544642 592.19553953 602.29271624 593.1701355 603.40934753 C599.59103298 610.82238229 605.76132754 618.38744041 611.76046753 626.1446991 C613.34737272 628.18522897 614.95082032 630.21196942 616.55685425 632.23747253 C634.40665893 654.82847463 650.0846109 678.93211494 665.46603394 703.24333191 C668.38528165 707.85334392 671.31732827 712.45519663 674.2482605 717.05778503 C675.41499037 718.89107814 676.581657 720.7244115 677.7482605 722.55778503 C678.6145105 723.91903503 678.6145105 723.91903503 679.4982605 725.30778503 C803.99435425 920.94450378 803.99435425 920.94450378 805.57980347 923.46159363 C806.77258614 925.31761512 807.99965893 927.1517786 809.24874878 928.97038269 C809.89956421 929.93379578 810.55037964 930.89720886 811.22091675 931.88981628 C812.12402588 933.19462952 812.12402588 933.19462952 813.04537964 934.52580261 C814.54750745 937.68767953 814.18413651 938.72817511 813.2482605 942.05778503 C812.33132355 944.00180099 811.34385539 945.91335547 810.30685425 947.79606628 C809.72355347 948.8627655 809.14025269 949.92946472 808.53927612 951.02848816 C807.92761597 952.13128113 807.31595581 953.2340741 806.6857605 954.37028503 C806.07023315 955.49241394 805.45470581 956.61454285 804.82052612 957.77067566 C803.30233956 960.53636436 801.77808345 963.29852112 800.2482605 966.05778503 C779.01296763 966.64341639 757.77901606 967.0834045 736.53726959 967.35308933 C726.6723901 967.48167981 716.81254352 967.65672882 706.95089722 967.94377136 C698.34860129 968.19403731 689.74994908 968.35447495 681.14411402 968.4099974 C676.59057175 968.44243848 672.04744478 968.51777984 667.49726868 968.70103645 C639.95745165 969.767447 639.95745165 969.767447 632.21069336 963.6649437 C627.07353407 957.83549987 623.76515363 951.36265227 620.71598816 944.26421928 C618.36752079 939.13369922 615.24896024 934.55207618 612.1232605 929.87028503 C610.97079419 928.06686371 609.82185895 926.26117637 608.677948 924.45231628 C605.20312803 918.98636303 601.72586367 913.52196781 598.2482605 908.05778503 C597.0815833 906.2244584 595.91491663 904.39112507 594.7482605 902.55778503 C593.8820105 901.19653503 593.8820105 901.19653503 592.9982605 899.80778503 C531.7482605 803.55778503 531.7482605 803.55778503 529.99752808 800.80656433 C528.8333871 798.97724637 527.66916214 797.14798185 526.50485229 795.31877136 C523.54884384 790.67444243 520.5943994 786.029131 517.64279175 781.38200378 C517.04273315 780.4377655 516.44267456 779.49352722 515.82443237 778.52067566 C514.70928241 776.76582727 513.59463378 775.01066011 512.48068237 773.25505066 C502.95496456 758.26932731 493.23219753 743.4116393 483.46774292 728.58073425 C482.18986524 726.63880517 480.91318416 724.69608817 479.63766479 722.75260925 C470.54174062 708.85200436 470.54174062 708.85200436 460.91500854 695.31852722 C458.15995926 691.581636 455.59157523 687.72022666 452.9982605 683.87028503 C447.43095734 675.67017257 441.60518449 667.70768652 435.5944519 659.82878113 C433.60502579 657.21157093 431.64763193 654.57068321 429.6857605 651.93278503 C421.22872815 640.6719798 412.45992682 629.71007286 403.2482605 619.05778503 C402.54572144 618.24180847 401.84318237 617.42583191 401.11935425 616.58512878 C369.5751446 580.7312738 331.93812012 558.88131851 283.9848938 555.48802185 C270.24618613 554.63887249 256.47679075 554.69838807 242.71686697 554.65306807 C238.49821807 554.63714769 234.2796356 554.61045445 230.06103516 554.58503723 C222.11812515 554.53874976 214.17520191 554.50176823 206.2322284 554.46836436 C197.17008748 554.42978318 188.10801409 554.38047096 179.04593062 554.3303802 C160.44675706 554.22780711 141.84754196 554.13831082 123.2482605 554.05778503 C123.25471574 554.8871378 123.26117099 555.71649057 123.26782185 556.57097524 C123.64854474 605.76419969 123.94007972 654.95726742 124.1163711 704.1516712 C124.1376322 710.063168 124.15963577 715.97466182 124.18209839 721.88615417 C124.1887873 723.65140451 124.1887873 723.65140451 124.19561135 725.45231647 C124.26951254 744.48845052 124.4035091 763.52370863 124.55985803 782.55932366 C124.71903615 802.10291555 124.81330179 821.64604984 124.84776491 841.19026333 C124.87105078 853.24322313 124.94448994 865.29370699 125.08284044 877.34590424 C125.17295459 885.61931866 125.19980728 893.89146002 125.17778391 902.16532915 C125.16693072 906.93458354 125.18312418 911.69952452 125.27475357 916.46800423 C125.84799107 947.8947234 125.84799107 947.8947234 117.69822496 957.60616034 C111.66748193 963.50645019 105.03271757 967.96737578 96.38929749 968.36177063 C95.30828262 968.3273587 94.22726776 968.29294678 93.11349487 968.25749207 C91.91912308 968.28728149 90.72475128 968.31707092 89.4941864 968.34776306 C85.60565653 968.42167004 81.73063569 968.37346127 77.8420105 968.31559753 C75.10439723 968.31940337 72.36701107 968.34358042 69.62948608 968.36488342 C63.91616675 968.39561443 58.20661041 968.35560791 52.49386597 968.27409363 C45.93506484 968.18157382 39.38524734 968.21155908 32.82666349 968.30514252 C27.14550296 968.38288809 21.46701051 968.39289789 15.78548861 968.34868515 C12.41309501 968.32248401 9.04820033 968.32461958 5.67555237 968.37480545 C1.9054269 968.41861023 -1.84807337 968.35149411 -5.61697388 968.25749207 C-7.23849617 968.30910995 -7.23849617 968.30910995 -8.89277649 968.36177063 C-17.63982417 967.9626473 -23.73221631 963.38260391 -29.84567016 957.54146761 C-40.2134988 945.84367645 -38.1276849 929.26995424 -37.93568792 914.59122026 C-37.89231436 909.8289858 -37.94807769 905.06769392 -37.99082458 900.3055954 C-38.05207116 891.97011721 -38.0504605 883.63651229 -38.00702286 875.3009491 C-37.94260717 862.90595824 -37.97564968 850.51254214 -38.02756408 838.11756122 C-38.11701159 815.97831132 -38.10935201 793.83989614 -38.06022257 771.70056713 C-38.01744035 752.32614215 -38.00630228 732.95202295 -38.02660751 713.57756042 C-38.02790606 712.29189361 -38.02920461 711.0062268 -38.0305425 709.68160039 C-38.03583535 704.46252267 -38.04124816 699.24344511 -38.04685849 694.02436772 C-38.06235363 679.43594102 -38.07214732 664.84751283 -38.07722282 650.25907898 C-38.0774548 649.5948207 -38.07768678 648.93056242 -38.07792579 648.2461751 C-38.08488094 627.08791381 -38.0657398 605.92975828 -38.02877998 584.77153015 C-38.02758575 584.0855353 -38.02639152 583.39954045 -38.0251611 582.69275788 C-38.00569823 571.55346162 -37.98496678 560.41416769 -37.96412814 549.27487393 C-37.88157332 505.09805109 -37.8854051 460.92210411 -37.9680481 416.74528503 C-37.98880924 405.61153756 -38.00939749 394.47778989 -38.02877998 383.34403992 C-38.03057641 382.31564646 -38.03057641 382.31564646 -38.03240913 381.26647738 C-38.06907797 360.12980132 -38.08460437 338.99319804 -38.07722282 317.85649109 C-38.07699189 317.19272392 -38.07676096 316.52895675 -38.07652303 315.84507542 C-38.07097194 300.61889215 -38.05900722 285.39271744 -38.04263961 270.16654205 C-38.0371875 264.95703136 -38.03186921 259.74752054 -38.02660751 254.53800964 C-38.0252632 253.25531639 -38.02391888 251.97262314 -38.02253383 250.6510604 C-38.00320518 231.28984302 -38.02579549 211.92896515 -38.06875992 192.5677948 C-38.11737476 170.55072777 -38.10520174 148.53462519 -38.01298727 126.51767826 C-37.96309067 114.19843191 -37.95977541 101.88127442 -38.02397224 89.56208256 C-38.0621398 81.32915968 -38.03829162 73.09790858 -37.96439116 64.86523315 C-37.92401036 60.17614602 -37.90996162 55.49120114 -37.97129287 50.80224705 C-38.33879347 20.34735208 -38.33879347 20.34735208 -30.47356842 10.56901916 C-21.46013951 1.45192368 -12.35236465 -0.36862111 0 0 Z M123.2482605 141.05778503 C123.2482605 230.48778503 123.2482605 319.91778503 123.2482605 412.05778503 C167.6745105 412.09903503 212.1007605 412.14028503 257.8732605 412.18278503 C278.84235962 412.21009705 278.84235962 412.21009705 300.2350769 412.23796082 C312.8683009 412.24465353 312.8683009 412.24465353 325.50152588 412.24867249 C331.08772505 412.25052068 336.67388319 412.25778423 342.2600708 412.26893616 C348.73119392 412.28183519 355.20227836 412.2874185 361.67341437 412.28467494 C364.97056975 412.28349055 368.26757133 412.28629668 371.56472135 412.2962153 C394.96939813 412.36325502 418.48451982 411.54259238 441.6857605 408.24528503 C442.91327026 408.07496765 444.14078003 407.90465027 445.40548706 407.72917175 C480.91461444 402.60704237 514.80177368 392.36236827 541.2482605 367.05778503 C541.92244019 366.44676941 542.59661987 365.83575378 543.29122925 365.20622253 C565.16377469 344.68706813 577.90971883 312.11600355 579.3744812 282.50627136 C580.4198439 246.40973147 571.37346453 213.9603302 546.34786987 187.25065613 C513.06564501 152.57972693 463.52528398 142.27783467 417.01467824 140.96662509 C413.77251015 140.93356749 410.531752 140.92905895 407.28942871 140.93753052 C406.06465171 140.93667609 404.83987471 140.93582167 403.57798326 140.93494135 C400.22332436 140.93359209 396.86872542 140.93666711 393.51407385 140.94171941 C389.87965754 140.94607663 386.24524277 140.94457378 382.61082458 140.94381714 C376.3288289 140.94329522 370.04684367 140.94640718 363.76485062 140.95205498 C354.68237431 140.96021517 345.59990301 140.96278981 336.51742344 140.96404297 C321.77828553 140.96622641 307.0391532 140.97286725 292.30001831 140.98234558 C277.99044827 140.99153804 263.68087976 140.99859841 249.37130737 141.00285339 C248.47886094 141.00312139 247.5864145 141.00338939 246.66692424 141.00366551 C239.68641443 141.00574518 232.70590458 141.00770202 225.72539473 141.00962007 C191.56634487 141.01903744 157.40730897 141.0391596 123.2482605 141.05778503 Z " fill="#000000" transform="translate(412.7517395019531,261.9422149658203)"/>
</svg>
